# xmcd
#
# Track frame offsets: 
#        150
#        14570
#        33757
#        56170
#        71997
#        84320
#        97087
#        118152
#        143457
#        158322
#        171512
#        189167
#        204932
#        227585
#
# Disc length: 3272 seconds
#
# Revision: 1
# Processed by: cddbd v1.5.2PL0 Copyright (c) Steve Scherf et al.
# Submitted via: ExactAudioCopyFreeDBPlugin 1.0
#
DISCID=b30cc60e
DTITLE=Eva Cassidy - The Other Side
DYEAR=1992
DGENRE=Blues
TTITLE0=Let The Good Times Roll
TTITLE1=Fever
TTITLE2=You Don't Know Me
TTITLE3=I Could Have Told You So
TTITLE4=Gee Baby, Ain't I Good To You
TTITLE5=I'll Go Crazy
TTITLE6=You Don't Know What Love Is
TTITLE7=Drown In My Own Tears
TTITLE8=God Bless The Child
TTITLE9=Red Top
TTITLE10=Dark End Of The Street
TTITLE11=The Shadow Of Your Smile
TTITLE12=Over The Rainbow
TTITLE13=You've Changed
EXTD=
EXTT0=
EXTT1=
EXTT2=
EXTT3=
EXTT4=
EXTT5=
EXTT6=
EXTT7=
EXTT8=
EXTT9=
EXTT10=
EXTT11=
EXTT12=
EXTT13=
PLAYORDER=
